<?xml version="1.0" encoding="utf-8"?>
<!-- Generator: Adobe Illustrator 14.0.0, SVG Export Plug-In . SVG Version: 6.00 Build 43363)  -->
<!DOCTYPE svg PUBLIC "-//W3C//DTD SVG 1.1//EN" "http://www.w3.org/Graphics/SVG/1.1/DTD/svg11.dtd">
<svg version="1.1" id="Layer_1" xmlns="http://www.w3.org/2000/svg" xmlns:xlink="http://www.w3.org/1999/xlink" x="0px" y="0px"
	 width="190px" height="74px" viewBox="0 0 190 74" enable-background="new 0 0 190 74" xml:space="preserve">
<path fill="#EE6C4D" d="M23.428,54.98c7.695,2.957,17.38,4.926,28.131,4.926c10.816,0,20.32-1.961,27.869-4.926H23.428z"/>
<path fill="#118AB2" d="M93.017,20.125c0.871-1.106,1.395-2.498,1.395-4.014c0-3.59-2.91-6.5-6.501-6.5
	c-1.877,0-3.563,0.8-4.75,2.073c-8.689-5.847-19.776-9.962-31.592-9.962c-11.493,0-22.014,4.286-30.387,10.168
	c-1.192-1.393-2.96-2.279-4.938-2.279c-3.59,0-6.5,2.91-6.5,6.5c0,1.666,0.632,3.18,1.663,4.331
	c-5.835,6.361-9.313,13.086-9.422,17.965c0.63,5.141,6.676,10.831,16.21,15.094h66.395c9.254-4.23,15.214-9.883,16.563-15.094
	C101.645,32.85,98.545,26.215,93.017,20.125z M28.244,39.721c-3.59,0-6.5-2.91-6.5-6.5c0-3.59,2.91-6.5,6.5-6.5
	c3.59,0,6.5,2.91,6.5,6.5C34.744,36.811,31.834,39.721,28.244,39.721z M75.578,39.721c-3.59,0-6.5-2.91-6.5-6.5
	c0-3.59,2.91-6.5,6.5-6.5c3.59,0,6.5,2.91,6.5,6.5C82.078,36.811,79.168,39.721,75.578,39.721z"/>
<circle fill="#EE6C4D" cx="17.725" cy="64.908" r="8"/>
<circle fill="#EE6C4D" cx="85.429" cy="64.908" r="8"/>
<text transform="matrix(1 0 0 1 107.2222 35.1753)" fill="#EE6C4D" font-family="'Impact'" font-size="40">COOL</text>
<text transform="matrix(1 0 0 1 108.1733 71.8242)" fill="#118AB2" font-family="'Impact'" font-size="40">TECH</text>
</svg>
