<?xml version="1.0" encoding="utf-8"?>
<!-- Generator: Adobe Illustrator 14.0.0, SVG Export Plug-In . SVG Version: 6.00 Build 43363)  -->
<!DOCTYPE svg PUBLIC "-//W3C//DTD SVG 1.1//EN" "http://www.w3.org/Graphics/SVG/1.1/DTD/svg11.dtd">
<svg version="1.1" id="Layer_1" xmlns="http://www.w3.org/2000/svg" xmlns:xlink="http://www.w3.org/1999/xlink" x="0px" y="0px"
	 width="202.265px" height="52px" viewBox="0 0 202.265 52" enable-background="new 0 0 202.265 52" xml:space="preserve">
<path fill="#EE6C4D" stroke="#FFFFFF" stroke-width="2" d="M62.976,13.631c0.572-0.724,0.917-1.637,0.917-2.63
	c0-2.352-1.907-4.258-4.262-4.258c-1.229,0-2.333,0.524-3.111,1.358c-5.692-3.832-12.956-6.527-20.697-6.527
	c-7.529,0-14.422,2.808-19.908,6.662c-0.78-0.913-1.938-1.493-3.235-1.493c-2.352,0-4.258,1.906-4.258,4.258
	c0,1.092,0.415,2.083,1.089,2.837c-3.823,4.168-6.102,8.573-6.173,11.769c0.413,3.369,4.374,7.096,10.62,9.889h43.498
	c6.061-2.771,9.967-6.475,10.849-9.889C68.631,21.968,66.598,17.621,62.976,13.631z M20.542,26.47c-2.353,0-4.258-1.907-4.258-4.259
	c0-2.352,1.906-4.258,4.258-4.258c2.352,0,4.259,1.907,4.259,4.258C24.801,24.563,22.894,26.47,20.542,26.47z M51.552,26.47
	c-2.352,0-4.259-1.907-4.259-4.259c0-2.352,1.907-4.258,4.259-4.258c2.352,0,4.258,1.907,4.258,4.258
	C55.81,24.563,53.904,26.47,51.552,26.47z"/>
<g>
	<path fill="#FFFFFF" d="M16.068,39.407c5.404,2.077,12.208,3.461,19.758,3.461c7.598,0,14.272-1.377,19.575-3.461H16.068z"/>
	<circle fill="#FFFFFF" cx="12.062" cy="46.381" r="5.619"/>
	<circle fill="#FFFFFF" cx="59.615" cy="46.381" r="5.619"/>
</g>
<text transform="matrix(1 0 0 1 75.7012 35.8594)" fill="#FFFFFF" font-family="'Impact'" font-size="32">COOL</text>
<text transform="matrix(1 0 0 1 142.7041 34.8594)" fill="#FFFFFF" font-family="'Impact'" font-size="29">TECH</text>
</svg>
