<?xml version="1.0" standalone="no"?>
<!DOCTYPE svg PUBLIC "-//W3C//DTD SVG 20010904//EN"
 "http://www.w3.org/TR/2001/REC-SVG-20010904/DTD/svg10.dtd">
<svg version="1.0" xmlns="http://www.w3.org/2000/svg"
 width="700.000000pt" height="700.000000pt" viewBox="0 0 700.000000 700.000000"
 preserveAspectRatio="xMidYMid meet">
<metadata>
Created by potrace 1.14, written by Peter Selinger 2001-2017
</metadata>
<g transform="translate(0.000000,700.000000) scale(0.100000,-0.100000)"
fill="#000000" stroke="none">
<path d="M3417 5784 c-1 -1 -51 -5 -112 -8 -162 -10 -195 -14 -410 -53 -44 -8
-231 -54 -255 -62 -14 -5 -59 -19 -100 -32 -263 -77 -646 -262 -913 -441 l-88
-59 -47 39 c-86 72 -171 104 -275 103 -83 -1 -111 -7 -183 -40 -101 -47 -185
-146 -223 -262 -32 -99 -9 -246 54 -345 l36 -56 -43 -46 c-24 -26 -59 -67 -78
-91 -19 -24 -40 -48 -45 -55 -23 -26 -117 -157 -168 -236 -157 -243 -259 -502
-271 -690 -3 -49 2 -81 19 -133 30 -87 93 -206 125 -237 3 -3 16 -18 29 -35
140 -183 426 -392 766 -560 l100 -49 2150 -1 2150 -1 88 43 c498 243 864 578
968 886 29 86 26 176 -15 382 -21 104 -117 323 -205 465 -49 78 -177 258 -192
270 -4 3 -27 29 -52 59 l-45 55 22 35 c42 67 59 124 62 207 5 116 -26 207 -96
287 -92 104 -189 147 -330 148 -97 0 -183 -33 -258 -96 l-40 -35 -59 39 c-164
106 -424 244 -573 306 -36 14 -78 32 -95 40 -16 7 -97 36 -179 64 -367 127
-717 187 -1124 195 -51 1 -94 1 -95 0z m-1327 -1628 c45 -9 121 -48 169 -86
126 -102 183 -296 131 -450 -76 -227 -307 -343 -532 -270 -271 90 -375 427
-199 650 51 64 78 86 146 120 87 44 183 56 285 36z m3095 -11 c249 -85 359
-370 234 -604 -52 -98 -187 -191 -300 -208 -163 -25 -346 60 -426 197 -96 163
-73 367 58 505 111 117 284 161 434 110z"/>
<path d="M1691 2336 c25 -25 598 -188 739 -211 19 -3 42 -8 50 -10 18 -5 57
-12 119 -21 25 -4 55 -8 66 -11 11 -2 43 -6 70 -9 28 -2 60 -7 71 -9 12 -3 50
-7 85 -10 35 -4 75 -8 88 -10 149 -25 885 -26 1042 0 13 2 55 6 92 10 37 3 76
8 85 10 9 1 40 6 67 9 100 14 121 17 198 32 42 9 90 18 105 20 173 31 565 143
692 198 31 14 -147 15 -1769 16 -992 0 -1802 -2 -1800 -4z"/>
<path d="M1244 2210 c-221 -32 -395 -196 -441 -417 -8 -38 -8 -139 0 -190 8
-54 52 -158 85 -203 64 -87 163 -159 267 -195 69 -24 206 -28 280 -9 174 45
320 184 371 353 26 84 23 228 -5 311 -62 181 -230 325 -405 346 -85 10 -102
11 -152 4z"/>
<path d="M5657 2214 c-1 -1 -22 -4 -47 -7 -166 -20 -328 -147 -398 -313 -136
-324 98 -694 448 -709 155 -7 285 41 390 145 282 277 159 756 -220 864 -47 13
-165 27 -173 20z"/>
</g>
</svg>
